PathFileType	4	(X/Y/Z)	6_coords_data.trc
DataRate	CameraRate	NumFrames	NumMarkers	Units	OrigDataRate	OrigDataStartFrame	OrigNumFrames
30.0	30.0	7	21	m	30.0	11	60
Frame#	Time	THUMB_TIP	THUMB_IP	THUMB_MCP	THUMB_CMC	INDEX_TIP	INDEX_DIP	INDEX_PIP	INDEX_MCP	MIDDLE_TIP	MIDDLE_DIP	MIDDLE_PIP	MIDDLE_MCP	RING_TIP	RING_DIP	RING_PIP	RING_MCP	PINKY_TIP	PINKY_DIP	PINKY_PIP	PINKY_MCP	WRIST
X1	Y1	Z1	X2	Y2	Z2	X3	Y3	Z3	X4	Y4	Z4	X5	Y5	Z5	X6	Y6	Z6	X7	Y7	Z7	X8	Y8	Z8	X9	Y9	Z9	X10	Y10	Z10	X11	Y11	Z11	X12	Y12	Z12	X13	Y13	Z13	X14	Y14	Z14	X15	Y15	Z15	X16	Y16	Z16	X17	Y17	Z17	X18	Y18	Z18	X19	Y19	Z19	X20	Y20	Z20	X21	Y21	Z21
9	0.33333333333333187	0.5360393972146962	-0.024061591559425777	-0.10941763833951629	0.5202041948590261	-0.025834975073093958	-0.12597364864600114	0.49045033011793704	-0.01984013939734175	-0.11907513589398702	0.4746790929364136	-0.01827086584690707	-0.07737746859366867	0.5635209438638054	0.052084967534068105	-0.15743168411737685	0.5495189352554553	0.04845012908594848	-0.14653527625112306	0.5307834429246309	0.040945996270682405	-0.13154597503950988	0.5018244537387457	0.03326301969156931	-0.10128073242993235	0.49691067558335417	-0.027528780248998075	-0.10033432510107393	0.5125410661523827	-0.019712000115979622	-0.10508709681994186	0.5314153122485927	0.0023242682521313895	-0.10783941597082147	0.5135472197313505	0.03332110767183438	-0.08107983569039795	0.5084003466975252	-0.028594965694372698	-0.08930627693473514	0.5233420652142655	-0.01978579546721404	-0.0942198873868812	0.5414045028715898	-0.0026736240465463634	-0.09317016640254178	0.5264013840233628	0.022949057605651912	-0.06572739970936586	0.5981016550042778	0.018207391360802405	-0.08682135103194577	0.5827504799933046	0.013187493299195219	-0.08115195518815896	0.5634271123536255	0.008564729791952996	-0.07436597407870166	0.5309897401559045	0.003029350422132593	-0.05959912231068115	0.4622830810018609	-0.023011742144277036	-0.051989820119430985
10	0.3666666666666651	0.5360782750427195	-0.02408396390909706	-0.10933414924525589	0.5202661688038759	-0.025869852150200767	-0.12591087689222563	0.49050919398561266	-0.01984201547441744	-0.11905466549850885	0.47469717674603884	-0.018288214561318128	-0.0773718655261236	0.5635500760487104	0.051622134852999046	-0.15756945453618298	0.5495428163742027	0.04811307923690478	-0.1466386171897548	0.5307936912991941	0.04073555483537583	-0.13160358225043625	0.5018247977495557	0.03324658254835344	-0.10129921631755573	0.4969118294172223	-0.027457020606273863	-0.10026753778249847	0.512590683038566	-0.01974219170674263	-0.10502726090169676	0.5314185279255479	0.002327593995098187	-0.10782839745434486	0.5135439814747941	0.03332636331493177	-0.0810753637789727	0.5084630221685813	-0.028650485820463256	-0.08928340912114546	0.5233907716385169	-0.019791640479368544	-0.0941499433073405	0.5414361458542576	-0.0026587913588940193	-0.09314499085625852	0.5263953853775472	0.02295990144494242	-0.0657191100626559	0.5980695000640658	0.018203022704991634	-0.08688647220088191	0.5827242839328227	0.013182198015438629	-0.08120178563764807	0.5634042409696274	0.008563516194120657	-0.07440356990602318	0.530989005323863	0.003035256575304901	-0.05958553040625997	0.4622830810018609	-0.023011742144277036	-0.05198982011943096
11	0.39999999999999825	0.5361191649832001	-0.024061403150180904	-0.10928670610598851	0.5203121338301426	-0.02587367135098395	-0.12586541082302324	0.4905481311539402	-0.019845839379793784	-0.11903976899107019	0.474698767094756	-0.01828915654315444	-0.07737126292875066	0.5635472375805943	0.051188542807794724	-0.1577161483847777	0.5495380850274009	0.04780870279169147	-0.14674708615471893	0.5307804039312455	0.040549414590796196	-0.1316652438365113	0.5018161777947111	0.03324113589327282	-0.10131234017325319	0.49687251846348196	-0.027359362996323133	-0.10020985824444328	0.512591854914988	-0.019724476200254415	-0.10496495710099354	0.5314133729183317	0.0023449958775592084	-0.1078107280433607	0.5135169680119749	0.03334923333313922	-0.08107865232474631	0.5085159390490126	-0.02868935513640647	-0.08920459714574591	0.5234092218360467	-0.01975751523905589	-0.09404322958410416	0.5414393005728146	-0.0026034564775407887	-0.09312971562556896	0.5263597047249542	0.023009432111122385	-0.06571974369544958	0.5980211775558644	0.01823199996098901	-0.0869763914496268	0.5826841030387404	0.013205298005278254	-0.08127495192046919	0.5633687403098916	0.008594397736827908	-0.0744581799301941	0.5309683264472884	0.0030853398471155646	-0.05960062583472356	0.4622830810018609	-0.023011742144277036	-0.05198982011943101
12	0.43333333333333146	0.5361650961413189	-0.023995599142867752	-0.10925011788549399	0.5203627093940086	-0.025842867525621704	-0.12582938724848197	0.490593803164855	-0.01981676292752832	-0.11902363341127242	0.47471501903860003	-0.018297905337209874	-0.07736493340404554	0.5635306831853497	0.05077231959492556	-0.15786328496014818	0.5495213380684392	0.0475010425499508	-0.1468616034572907	0.5307589293362889	0.04036425455738024	-0.1317272680335984	0.5018039093279758	0.03324175611432312	-0.10132146387967339	0.49684616951547855	-0.027234314750827604	-0.10018602953557756	0.5126073491209713	-0.01968564590093158	-0.10494027143497775	0.5314292450945883	0.0023796852562725235	-0.10781550062258391	0.5134881191928895	0.03336739829474078	-0.08109424385900824	0.5085216792814393	-0.02865620593369611	-0.08908499302166473	0.523400446923691	-0.019722982516866105	-0.09396554553474026	0.5414369981711763	-0.002571681964270711	-0.09313146673068115	0.5263243839026176	0.023050130348924225	-0.06574803272840218	0.5979674922560615	0.018275461329783305	-0.08705933993394299	0.5826382764936165	0.013242487151206461	-0.08134232016607551	0.5633306654879554	0.00863545584512082	-0.07450101628459052	0.5309493798399727	0.003135816472707109	-0.05959834009683318	0.4622830810018609	-0.023011742144276814	-0.05198982011943101
13	0.4666666666666647	0.536231423063068	-0.02393672897468191	-0.10921071102515137	0.5204246591190372	-0.02581969227898817	-0.12578179013341478	0.4906478233314438	-0.019803183630110688	-0.11900228615770422	0.47472305763049044	-0.018296351869139027	-0.07736070483069565	0.5635045253110871	0.05038480332856021	-0.15800322171914608	0.5494972708164505	0.04721169763304167	-0.14697017038383758	0.5307335447967856	0.04018380617128303	-0.13178658844607694	0.5017869765901924	0.03324612006750771	-0.10133004900728751	0.49677695206027556	-0.02704841000491709	-0.10017960593496852	0.5126251618562014	-0.019661557072085722	-0.10489857298433855	0.5314308465614657	0.0024103730361657583	-0.10782870507396305	0.5134596708525291	0.033384258648543885	-0.08111160989672025	0.5085318021700392	-0.028546144154460107	-0.08899981527444217	0.5234280139123865	-0.019658588218570028	-0.09391043898366497	0.5414724138866798	-0.0025120973282952708	-0.09315053193839312	0.5262973263064408	0.023080007689166404	-0.06577386830479276	0.5979199879658805	0.018296680326081893	-0.08714683504519288	0.5825981600107992	0.013257591120083068	-0.0814154156669872	0.5632998989898848	0.00864119331738955	-0.07455407382329926	0.5309275277861386	0.0031883193385500164	-0.05961489047822416	0.4622830810018609	-0.023011742144276814	-0.05198982011943096
14	0.4999999999999978	0.5362789470082338	-0.023948251273478327	-0.1091310223970749	0.5204864380199633	-0.025818617025714197	-0.1257171127081838	0.49070312429741114	-0.01978408085432748	-0.11898223357784571	0.47472029052576575	-0.018297059053367537	-0.07736219284274529	0.5634823840628514	0.05002542357100159	-0.1581391252457367	0.5494763388985515	0.04694068881271973	-0.14707950905318115	0.5307134686013416	0.04000696515521951	-0.1318516396207392	0.5017677219845879	0.0332361847176974	-0.10135678138093818	0.496759032542734	-0.026938627112121027	-0.1001667151888205	0.5126494646676543	-0.019636470432780495	-0.10487550215720898	0.5314446425815489	0.002437301685542792	-0.10785869200255649	0.5134381499392255	0.033389181694574055	-0.08113987339790091	0.5085614581396606	-0.028471885193820823	-0.08888279895500001	0.5234516775443788	-0.01960709944946193	-0.09385240052715485	0.5414950365549136	-0.00245633539990342	-0.09316795393805555	0.5262674470690744	0.023113711191047437	-0.06579983252303387	0.5978783258383742	0.018288416323669066	-0.08724729779834722	0.5825611264478264	0.013249317826492968	-0.08150352820286721	0.5632711081681357	0.00863818003430794	-0.07461552253862147	0.5309004116696174	0.0032491657869011537	-0.059649561672640905	0.4622830810018609	-0.023011742144276814	-0.051989820119430985
15	0.533333333333331	0.5363288001102178	-0.023936799576738554	-0.10903287383014842	0.5205545689785473	-0.025817203221063068	-0.1256352144584771	0.490760859937772	-0.019770320389028484	-0.11895763184129673	0.4747271489007882	-0.018287333972173858	-0.07735702052764021	0.5634680367417042	0.049650459382167944	-0.15826900104693453	0.5494674497355461	0.0466601371171832	-0.14717659210051837	0.5307029081473142	0.03982668143471202	-0.13190551828695757	0.5017691095446966	0.03323164037976978	-0.10136084893358618	0.4968185883429357	-0.02695376248168113	-0.10014428169929127	0.5126906521314055	-0.019625010237687812	-0.10487365603855725	0.5314750367156857	0.0024547586768224328	-0.10788035696676518	0.5134267404166946	0.033386062867761024	-0.08116591625108768	0.5085943858760049	-0.028379868716388312	-0.08878886295247532	0.5234828816294139	-0.019537767015824326	-0.09380383371187234	0.5415311282711954	-0.002389578770046974	-0.09318705818964856	0.5262440818751618	0.0231413860913261	-0.06581559714474156	0.597843129673101	0.01829481586517323	-0.08732755456108199	0.582528147541788	0.013259009774130193	-0.08157499171214466	0.5632491859390866	0.008649708192045136	-0.07465487629063977	0.5308797941826349	0.003296016537138513	-0.05967342395845418	0.4622830810018609	-0.023011742144276814	-0.051989820119430985
